<svg xmlns="http://www.w3.org/2000/svg" viewBox="0 0 600 120">
  <defs><linearGradient id="g" x1="0" x2="1"><stop offset="0" stop-color="#0b6b4a"/><stop offset="1" stop-color="#0b8b66"/></linearGradient></defs>
  <g transform="translate(8,8)">
    <path d="M70 8c-19 0-34 15-34 34s15 34 34 34c19 0 34-15 34-34 0-6-2-12-5-17-7 5-16 8-29 8-12 0-22-3-29-7 7-6 17-9 29-9 13 0 22 3 29 8-3-5-5-11-5-17 0-19-15-34-34-34z" fill="url(#g)"/>
    <rect x="140" y="20" width="12" height="44" rx="2" fill="url(#g)"></rect>
  </g>
  <g transform="translate(180,72)">
    <text x="0" y="0" font-family="Georgia, serif" font-size="24" fill="#0b6b4a">ISLAMIC MEDIA HUB</text>
    <text x="0" y="26" font-family="Inter, Arial, sans-serif" font-size="12" fill="#0b8b66">Created by <tspan font-weight="700">SULEIMAN AL HASSAN</tspan></text>
  </g>
</svg>